<svg width="32" height="32" viewBox="0 0 32 32" fill="none" xmlns="http://www.w3.org/2000/svg">
<path fill-rule="evenodd" clip-rule="evenodd" d="M16 30C12.287 30 8.72602 28.525 6.10051 25.8995C3.475 23.274 2 19.713 2 16C2 12.287 3.475 8.72601 6.10051 6.1005C8.72602 3.475 12.287 2 16 2C19.713 2 23.274 3.475 25.8995 6.1005C28.525 8.72601 30 12.287 30 16C30 19.713 28.525 23.274 25.8995 25.8995C23.274 28.525 19.713 30 16 30ZM16 32C11.7565 32 7.68687 30.3143 4.68629 27.3137C1.68571 24.3131 0 20.2435 0 16C0 11.7565 1.68571 7.68687 4.68629 4.68629C7.68687 1.68571 11.7565 0 16 0C20.2435 0 24.3131 1.68571 27.3137 4.68629C30.3143 7.68687 32 11.7565 32 16C32 20.2435 30.3143 24.3131 27.3137 27.3137C24.3131 30.3143 20.2435 32 16 32Z" fill="#696969"/>
<path fill-rule="evenodd" clip-rule="evenodd" d="M15.2922 22.708C15.199 22.6152 15.1252 22.5048 15.0747 22.3833C15.0243 22.2618 14.9984 22.1316 14.9984 22C14.9984 21.8685 15.0243 21.7383 15.0747 21.6168C15.1252 21.4953 15.199 21.3849 15.2922 21.292L20.5862 16L15.2922 10.708C15.1992 10.6151 15.1254 10.5047 15.0751 10.3832C15.0248 10.2617 14.9989 10.1315 14.9989 10C14.9989 9.86856 15.0248 9.73835 15.0751 9.61688C15.1254 9.4954 15.1992 9.38502 15.2922 9.29204C15.3851 9.19907 15.4955 9.12531 15.617 9.075C15.7385 9.02468 15.8687 8.99878 16.0002 8.99878C16.1317 8.99878 16.2619 9.02468 16.3833 9.075C16.5048 9.12531 16.6152 9.19907 16.7082 9.29204L22.7082 15.292C22.8013 15.3849 22.8752 15.4953 22.9256 15.6168C22.976 15.7383 23.002 15.8685 23.002 16C23.002 16.1316 22.976 16.2618 22.9256 16.3833C22.8752 16.5048 22.8013 16.6152 22.7082 16.708L16.7082 22.708C16.6153 22.8012 16.5049 22.8751 16.3834 22.9255C16.2619 22.9759 16.1317 23.0018 16.0002 23.0018C15.8686 23.0018 15.7384 22.9759 15.6169 22.9255C15.4954 22.8751 15.3851 22.8012 15.2922 22.708Z" fill="#696969"/>
<path fill-rule="evenodd" clip-rule="evenodd" d="M9 16C9 15.7348 9.10536 15.4804 9.29289 15.2929C9.48043 15.1054 9.73478 15 10 15H20C20.2652 15 20.5196 15.1054 20.7071 15.2929C20.8946 15.4804 21 15.7348 21 16C21 16.2652 20.8946 16.5196 20.7071 16.7071C20.5196 16.8946 20.2652 17 20 17H10C9.73478 17 9.48043 16.8946 9.29289 16.7071C9.10536 16.5196 9 16.2652 9 16Z" fill="#696969"/>
</svg>
