<svg width="32" height="32" viewBox="0 0 32 32" fill="none" xmlns="http://www.w3.org/2000/svg">
<path fill-rule="evenodd" clip-rule="evenodd" d="M16 30C19.713 30 23.274 28.525 25.8995 25.8995C28.525 23.274 30 19.713 30 16C30 12.287 28.525 8.72601 25.8995 6.1005C23.274 3.475 19.713 2 16 2C12.287 2 8.72601 3.475 6.1005 6.1005C3.475 8.72601 2 12.287 2 16C2 19.713 3.475 23.274 6.1005 25.8995C8.72601 28.525 12.287 30 16 30ZM16 32C20.2435 32 24.3131 30.3143 27.3137 27.3137C30.3143 24.3131 32 20.2435 32 16C32 11.7565 30.3143 7.68687 27.3137 4.68629C24.3131 1.68571 20.2435 0 16 0C11.7565 0 7.68687 1.68571 4.68629 4.68629C1.68571 7.68687 0 11.7565 0 16C0 20.2435 1.68571 24.3131 4.68629 27.3137C7.68687 30.3143 11.7565 32 16 32Z" fill="#696969"/>
<path fill-rule="evenodd" clip-rule="evenodd" d="M16.7078 22.708C16.801 22.6152 16.8748 22.5048 16.9253 22.3833C16.9757 22.2618 17.0016 22.1316 17.0016 22C17.0016 21.8685 16.9757 21.7383 16.9253 21.6168C16.8748 21.4953 16.801 21.3849 16.7078 21.292L11.4138 16L16.7078 10.708C16.8008 10.6151 16.8746 10.5047 16.9249 10.3832C16.9752 10.2617 17.0011 10.1315 17.0011 10C17.0011 9.86856 16.9752 9.73835 16.9249 9.61688C16.8746 9.4954 16.8008 9.38502 16.7078 9.29204C16.6149 9.19907 16.5045 9.12531 16.383 9.075C16.2615 9.02468 16.1313 8.99878 15.9998 8.99878C15.8683 8.99878 15.7381 9.02468 15.6167 9.075C15.4952 9.12531 15.3848 9.19907 15.2918 9.29204L9.29183 15.292C9.19871 15.3849 9.12482 15.4953 9.07441 15.6168C9.024 15.7383 8.99805 15.8685 8.99805 16C8.99805 16.1316 9.024 16.2618 9.07441 16.3833C9.12482 16.5048 9.19871 16.6152 9.29183 16.708L15.2918 22.708C15.3847 22.8012 15.4951 22.8751 15.6166 22.9255C15.7381 22.9759 15.8683 23.0018 15.9998 23.0018C16.1314 23.0018 16.2616 22.9759 16.3831 22.9255C16.5046 22.8751 16.6149 22.8012 16.7078 22.708Z" fill="#696969"/>
<path fill-rule="evenodd" clip-rule="evenodd" d="M23 16C23 15.7348 22.8946 15.4804 22.7071 15.2929C22.5196 15.1054 22.2652 15 22 15H12C11.7348 15 11.4804 15.1054 11.2929 15.2929C11.1054 15.4804 11 15.7348 11 16C11 16.2652 11.1054 16.5196 11.2929 16.7071C11.4804 16.8946 11.7348 17 12 17H22C22.2652 17 22.5196 16.8946 22.7071 16.7071C22.8946 16.5196 23 16.2652 23 16Z" fill="#696969"/>
</svg>
