<svg width="36" height="35" viewBox="0 0 36 35" fill="none" xmlns="http://www.w3.org/2000/svg">
<path d="M10.0913 19.675L15.4196 14.2197L2.20254 0.706792C0.792058 2.15507 0 4.11686 0 6.16209C0 8.20732 0.792058 10.1691 2.20254 11.6174L10.0913 19.675ZM32.7787 13.5258C36.3748 9.84394 37.0714 4.56213 34.3038 1.72846C31.5549 -1.08594 26.3961 -0.391978 22.7812 3.28987C19.7876 6.35486 18.8462 10.4993 20.183 13.4487L1.80715 32.2627L4.46186 34.9807L17.4341 21.7376L30.3876 35L33.0423 32.282L20.0889 19.0196L22.8565 16.186C25.7372 17.5546 29.7851 16.5908 32.7787 13.5258Z" fill="white"/>
</svg>
