<svg width="39" height="39" viewBox="0 0 39 39" fill="none" xmlns="http://www.w3.org/2000/svg">
<path d="M0 39H19.5V0H0V39ZM12.1875 4.875H17.0625V9.75H12.1875V4.875ZM12.1875 14.625H17.0625V19.5H12.1875V14.625ZM12.1875 24.375H17.0625V29.25H12.1875V24.375ZM2.4375 4.875H7.3125V9.75H2.4375V4.875ZM2.4375 14.625H7.3125V19.5H2.4375V14.625ZM2.4375 24.375H7.3125V29.25H2.4375V24.375ZM21.9375 12.1875H39V14.625H21.9375V12.1875ZM21.9375 39H26.8125V29.25H34.125V39H39V17.0625H21.9375V39Z" fill="white"/>
</svg>
