<svg width="52" height="44" viewBox="0 0 52 44" fill="none" xmlns="http://www.w3.org/2000/svg">
<path d="M52 24.2V33C52 33.5835 51.7717 34.1431 51.3654 34.5556C50.9591 34.9682 50.408 35.2 49.8333 35.2C49.2587 35.2 48.7076 34.9682 48.3013 34.5556C47.8949 34.1431 47.6667 33.5835 47.6667 33C47.6667 33 47.9267 30.8 43.3333 30.8H39V41.8C39 42.3835 38.7717 42.9431 38.3654 43.3556C37.9591 43.7682 37.408 44 36.8333 44H2.16667C1.59203 44 1.04093 43.7682 0.634602 43.3556C0.228274 42.9431 0 42.3835 0 41.8V24.2C0 23.6165 0.228274 23.0569 0.634602 22.6444C1.04093 22.2318 1.59203 22 2.16667 22H36.8333C37.408 22 37.9591 22.2318 38.3654 22.6444C38.7717 23.0569 39 23.6165 39 24.2V26.4H43.3333C47.9267 26.4 47.6667 24.2 47.6667 24.2C47.6667 23.6165 47.8949 23.0569 48.3013 22.6444C48.7076 22.2318 49.2587 22 49.8333 22C50.408 22 50.9591 22.2318 51.3654 22.6444C51.7717 23.0569 52 23.6165 52 24.2ZM8.66667 4.4C6.36812 4.4 4.16372 5.32714 2.53841 6.97746C0.913092 8.62778 0 10.8661 0 13.2C0 15.5339 0.913092 17.7722 2.53841 19.4225C4.16372 21.0729 6.36812 22 8.66667 22C10.9652 22 13.1696 21.0729 14.7949 19.4225C16.4202 17.7722 17.3333 15.5339 17.3333 13.2C17.3333 10.8661 16.4202 8.62778 14.7949 6.97746C13.1696 5.32714 10.9652 4.4 8.66667 4.4ZM8.66667 17.6C7.5174 17.6 6.41519 17.1364 5.60254 16.3113C4.78988 15.4861 4.33333 14.367 4.33333 13.2C4.33333 12.033 4.78988 10.9139 5.60254 10.0887C6.41519 9.26357 7.5174 8.8 8.66667 8.8C9.81594 8.8 10.9181 9.26357 11.7308 10.0887C12.5435 10.9139 13 12.033 13 13.2C13 14.367 12.5435 15.4861 11.7308 16.3113C10.9181 17.1364 9.81594 17.6 8.66667 17.6ZM28.1667 0C25.2935 0 22.538 1.15893 20.5063 3.22183C18.4747 5.28473 17.3333 8.08262 17.3333 11C17.3333 13.9174 18.4747 16.7153 20.5063 18.7782C22.538 20.8411 25.2935 22 28.1667 22C31.0398 22 33.7953 20.8411 35.827 18.7782C37.8586 16.7153 39 13.9174 39 11C39 8.08262 37.8586 5.28473 35.827 3.22183C33.7953 1.15893 31.0398 0 28.1667 0ZM28.1667 17.6C26.4428 17.6 24.7895 16.9046 23.5705 15.6669C22.3515 14.4292 21.6667 12.7504 21.6667 11C21.6667 9.24957 22.3515 7.57084 23.5705 6.3331C24.7895 5.09536 26.4428 4.4 28.1667 4.4C29.8906 4.4 31.5439 5.09536 32.7629 6.3331C33.9818 7.57084 34.6667 9.24957 34.6667 11C34.6667 12.7504 33.9818 14.4292 32.7629 15.6669C31.5439 16.9046 29.8906 17.6 28.1667 17.6Z" fill="white"/>
</svg>
