<svg width="40" height="39" viewBox="0 0 40 39" fill="none" xmlns="http://www.w3.org/2000/svg">
<path d="M39.2383 21.175C38.7305 21.6696 38.1185 21.9169 37.4023 21.9169C36.6862 21.9169 36.0807 21.6759 35.5859 21.194L35 20.6233V36.565C35 37.2245 34.7591 37.7952 34.2773 38.2771C33.7956 38.759 33.2031 39 32.5 39H25V28.0425C25 27.7127 24.8763 27.4274 24.6289 27.1864C24.3815 26.9454 24.0885 26.825 23.75 26.825H16.25C15.9115 26.825 15.6185 26.9454 15.3711 27.1864C15.1237 27.4274 15 27.7127 15 28.0425V39H7.5C6.79688 39 6.20443 38.759 5.72266 38.2771C5.24089 37.7952 5 37.2245 5 36.565V20.6233L4.41406 21.194C3.91927 21.6759 3.3138 21.9169 2.59766 21.9169C1.88151 21.9169 1.26953 21.6696 0.761719 21.175C0.253906 20.6804 0 20.0843 0 19.3868C0 18.6892 0.247396 18.0995 0.742188 17.6176L18.0859 0.724705C18.6068 0.217412 19.2448 -0.0235529 20 0.00181176C20.7552 -0.0235529 21.3932 0.217412 21.9141 0.724705L39.2578 17.6176C39.7526 18.0995 40 18.6892 40 19.3868C40 20.0843 39.7461 20.6804 39.2383 21.175Z" fill="white"/>
</svg>
