<svg width="34" height="39" viewBox="0 0 34 39" fill="none" xmlns="http://www.w3.org/2000/svg">
<path d="M0 0V39H15.5833V33H18.4167V39H34V0H0ZM2.83333 3H31.1667V36H21.25V30H12.75V36H2.83333V3ZM5.66667 6V9H11.3333V6H5.66667ZM14.1667 6V9H19.8333V6H14.1667ZM22.6667 6V9H28.3333V6H22.6667ZM5.66667 12V15H11.3333V12H5.66667ZM14.1667 12V15H19.8333V12H14.1667ZM22.6667 12V15H28.3333V12H22.6667ZM5.66667 18V21H11.3333V18H5.66667ZM14.1667 18V21H19.8333V18H14.1667ZM22.6667 18V21H28.3333V18H22.6667ZM5.66667 24V27H11.3333V24H5.66667ZM14.1667 24V27H19.8333V24H14.1667ZM22.6667 24V27H28.3333V24H22.6667ZM5.66667 30V33H11.3333V30H5.66667ZM22.6667 30V33H28.3333V30H22.6667Z" fill="white"/>
</svg>
