<svg width="40" height="40" viewBox="0 0 40 40" fill="none" xmlns="http://www.w3.org/2000/svg">
<path d="M31.1111 17.7778V0H8.88889V8.88889H0V40H17.7778V31.1111H22.2222V40H40V17.7778H31.1111ZM8.88889 35.5556H4.44444V31.1111H8.88889V35.5556ZM8.88889 26.6667H4.44444V22.2222H8.88889V26.6667ZM8.88889 17.7778H4.44444V13.3333H8.88889V17.7778ZM17.7778 26.6667H13.3333V22.2222H17.7778V26.6667ZM17.7778 17.7778H13.3333V13.3333H17.7778V17.7778ZM17.7778 8.88889H13.3333V4.44444H17.7778V8.88889ZM26.6667 26.6667H22.2222V22.2222H26.6667V26.6667ZM26.6667 17.7778H22.2222V13.3333H26.6667V17.7778ZM26.6667 8.88889H22.2222V4.44444H26.6667V8.88889ZM35.5556 35.5556H31.1111V31.1111H35.5556V35.5556ZM35.5556 26.6667H31.1111V22.2222H35.5556V26.6667Z" fill="white"/>
</svg>
