<svg width="123" height="67" viewBox="0 0 123 67" fill="none" xmlns="http://www.w3.org/2000/svg">
<path d="M57.0038 39.7479L57.2092 40.2037L57.0038 39.7479ZM10.8886 7.76146C10.6734 7.58844 10.3586 7.62266 10.1856 7.83788L7.36615 11.3451C7.19313 11.5603 7.22734 11.875 7.44256 12.048C7.65778 12.2211 7.97251 12.1869 8.14553 11.9716L10.6517 8.85412L13.7693 11.3603C13.9845 11.5333 14.2992 11.4991 14.4722 11.2839C14.6452 11.0687 14.611 10.754 14.3958 10.5809L10.8886 7.76146ZM121.86 34.4778C122.102 34.0403 122.102 34.0401 122.101 34.0398C122.101 34.0397 122.1 34.0394 122.1 34.0391C122.099 34.0385 122.097 34.0377 122.095 34.0367C122.092 34.0347 122.087 34.0319 122.08 34.0283C122.067 34.0212 122.048 34.011 122.023 33.998C121.974 33.9719 121.901 33.9344 121.805 33.8866C121.614 33.7912 121.33 33.6551 120.957 33.4895C120.21 33.1582 119.102 32.7086 117.646 32.2285C114.735 31.2684 110.433 30.1867 104.846 29.6871C93.6688 28.6877 77.3687 30.0202 56.7983 39.292L57.2092 40.2037C77.6245 31.0017 93.7525 29.6992 104.757 30.6832C110.261 31.1753 114.488 32.24 117.333 33.1782C118.756 33.6474 119.833 34.085 120.552 34.4036C120.911 34.563 121.18 34.6925 121.359 34.7815C121.448 34.8259 121.514 34.8602 121.557 34.883C121.579 34.8944 121.595 34.9029 121.605 34.9083C121.61 34.9111 121.614 34.913 121.616 34.9142C121.617 34.9148 121.618 34.9152 121.618 34.9154C121.618 34.9155 121.618 34.9155 121.618 34.9155C121.618 34.9155 121.618 34.9154 121.86 34.4778ZM56.7983 39.292C46.6339 43.8735 38.7414 44.1766 32.6169 42.1303C26.4863 40.082 22.045 35.6521 18.842 30.6091C15.6381 25.5649 13.6934 19.9377 12.5499 15.5597C11.9788 13.373 11.6089 11.5035 11.382 10.1819C11.2686 9.52129 11.191 8.99793 11.1418 8.64076C11.1172 8.46219 11.0997 8.32518 11.0885 8.23336C11.0828 8.18745 11.0788 8.15284 11.0761 8.12999C11.0748 8.11856 11.0738 8.11007 11.0732 8.10457C11.0729 8.10182 11.0727 8.09982 11.0726 8.09858C11.0725 8.09796 11.0724 8.09759 11.0724 8.09728C11.0724 8.0971 11.0724 8.09712 10.5753 8.15115C10.0783 8.20519 10.0783 8.20558 10.0784 8.20617C10.0784 8.20662 10.0785 8.2074 10.0786 8.2083C10.0788 8.2101 10.0791 8.21265 10.0794 8.21596C10.0802 8.22257 10.0813 8.23219 10.0827 8.24476C10.0856 8.26989 10.09 8.30682 10.0959 8.35508C10.1077 8.45162 10.1258 8.59351 10.1511 8.77715C10.2017 9.14442 10.281 9.67876 10.3965 10.3512C10.6273 11.6957 11.0029 13.5936 11.5824 15.8124C12.7402 20.2453 14.7178 25.9812 17.9978 31.1453C21.2787 36.3107 25.8829 40.9347 32.3 43.0788C38.7233 45.2249 46.8808 44.8592 57.2092 40.2037L56.7983 39.292Z" fill="#5F5F5F"/>
</svg>
