<svg width="48" height="39" viewBox="0 0 48 39" fill="none" xmlns="http://www.w3.org/2000/svg">
<path d="M41.149 22.4638V37.0546C41.149 37.5815 40.9604 38.0374 40.5833 38.4224C40.2062 38.8075 39.7596 39 39.2436 39H27.8109V27.3274H20.1891V39H8.75644C8.24039 39 7.7938 38.8075 7.41668 38.4224C7.03956 38.0374 6.851 37.5815 6.851 37.0546V22.4638C6.851 22.4435 6.85596 22.4131 6.86589 22.3726C6.87581 22.332 6.88077 22.3016 6.88077 22.2814L24 7.87295L41.1192 22.2814C41.1391 22.3219 41.149 22.3827 41.149 22.4638ZM47.7883 20.3663L45.9424 22.6157C45.7836 22.7981 45.5752 22.9096 45.3172 22.9501H45.2278C44.9698 22.9501 44.7614 22.8792 44.6026 22.7373L24 5.19797L3.39738 22.7373C3.1592 22.8995 2.92102 22.9704 2.68284 22.9501C2.42481 22.9096 2.2164 22.7981 2.05762 22.6157L0.211716 20.3663C0.052929 20.1637 -0.0165403 19.9256 0.00330806 19.652C0.0231564 19.3784 0.132323 19.1606 0.330806 18.9984L21.7373 0.790335C22.3724 0.263445 23.1267 0 24 0C24.8733 0 25.6276 0.263445 26.2627 0.790335L33.5272 6.99143V1.06391C33.5272 0.780203 33.6165 0.547155 33.7952 0.36477C33.9738 0.182385 34.2021 0.0911925 34.4799 0.0911925H40.1963C40.4742 0.0911925 40.7024 0.182385 40.8811 0.36477C41.0597 0.547155 41.149 0.780203 41.149 1.06391V13.4661L47.6692 18.9984C47.8677 19.1606 47.9768 19.3784 47.9967 19.652C48.0165 19.9256 47.9471 20.1637 47.7883 20.3663Z" fill="white"/>
</svg>
