<svg width="36" height="36" viewBox="0 0 36 36" fill="none" xmlns="http://www.w3.org/2000/svg">
<path d="M33.5666 25.9145L30.0706 22.4185C29.4379 21.7862 28.6454 21.3374 27.7776 21.12C26.9099 20.9027 25.9994 20.925 25.1434 21.1845C24.2873 21.444 23.5177 21.931 22.9167 22.5935C22.3156 23.256 21.9057 24.0693 21.7306 24.9465C15.9656 23.8685 10.3586 18.2845 10.0096 13.2935C10.9897 13.1133 11.8916 12.6389 12.5956 11.9335C13.5224 11.0066 14.0431 9.7494 14.0431 8.43854C14.0431 7.12769 13.5224 5.87052 12.5956 4.94354L9.10057 1.44754C8.1736 0.52069 6.91643 0 5.60557 0C4.29472 0 3.03755 0.52069 2.11057 1.44754C-8.37543 11.9335 23.0806 43.3895 33.5666 32.9035C34.4929 31.9765 35.0132 30.7196 35.0132 29.409C35.0132 28.0985 34.4929 26.8416 33.5666 25.9145Z" fill="#5F5F5F"/>
</svg>
