<svg width="40" height="40" viewBox="0 0 40 40" fill="none" xmlns="http://www.w3.org/2000/svg">
<path d="M38.8575 3.35254H32.0489C31.9125 3.35254 31.7817 3.40671 31.6853 3.50314C31.5889 3.59956 31.5347 3.73034 31.5347 3.86671C31.5347 3.95432 31.5624 4.03271 31.6004 4.10419V8.02153C31.6006 8.16509 31.5724 8.30728 31.5175 8.43994C31.4627 8.57261 31.3822 8.69314 31.2807 8.79466C31.1791 8.89617 31.0586 8.97667 30.9259 9.03154C30.7933 9.08641 30.6511 9.11457 30.5075 9.11442H28.3886C28.2554 9.11442 28.1235 9.08818 28.0004 9.0372C27.8773 8.98621 27.7655 8.91149 27.6713 8.81728C27.5771 8.72308 27.5023 8.61124 27.4513 8.48816C27.4004 8.36507 27.3741 8.23315 27.3741 8.09992V4.1676C27.4421 4.08181 27.4802 3.97614 27.4825 3.86671C27.4826 3.79914 27.4694 3.73221 27.4437 3.66976C27.4179 3.60731 27.38 3.55057 27.3322 3.5028C27.2845 3.45502 27.2277 3.41715 27.1653 3.39137C27.1028 3.36558 27.0359 3.35239 26.9683 3.35254H13.2438C13.1074 3.35254 12.9767 3.40671 12.8802 3.50314C12.7838 3.59956 12.7296 3.73034 12.7296 3.86671C12.7296 3.94625 12.7515 4.01888 12.7838 4.0869V8.0492C12.7838 8.18924 12.7562 8.3279 12.7026 8.45728C12.6491 8.58666 12.5705 8.70422 12.4715 8.80324C12.3725 8.90226 12.2549 8.98081 12.1255 9.0344C11.9961 9.08799 11.8575 9.11557 11.7174 9.11557H9.83601C9.55044 9.11557 9.27656 9.00213 9.07463 8.8002C8.8727 8.59827 8.75926 8.3244 8.75926 8.03882V4.11572C8.80504 4.04059 8.8301 3.95467 8.83189 3.86671C8.83204 3.79914 8.81884 3.73221 8.79306 3.66976C8.76727 3.60731 8.72941 3.55057 8.68163 3.5028C8.63386 3.45502 8.57711 3.41715 8.51466 3.39137C8.45221 3.36558 8.38529 3.35239 8.31772 3.35254H1.14361C0.840602 3.35284 0.550071 3.47327 0.335701 3.68743C0.12133 3.90158 0.000610144 4.19199 0 4.495V38.5429C0 39.1747 0.513012 39.6877 1.14361 39.6877H38.8575C39.1608 39.6871 39.4513 39.5662 39.6655 39.3516C39.8797 39.1369 40 38.8461 40 38.5429V4.495C39.9994 4.19219 39.8788 3.90195 39.6647 3.68783C39.4506 3.47371 39.1604 3.35315 38.8575 3.35254ZM38.8575 38.6593H1.14361C1.12838 38.6593 1.11329 38.6563 1.09923 38.6504C1.08517 38.6446 1.07241 38.636 1.06169 38.6252C1.05097 38.6143 1.0425 38.6015 1.03677 38.5874C1.03105 38.5732 1.02818 38.5581 1.02833 38.5429V12.8658H38.9717V38.5417C38.972 38.557 38.9693 38.5721 38.9637 38.5863C38.9581 38.6005 38.9497 38.6134 38.9391 38.6243C38.9285 38.6353 38.9158 38.644 38.9018 38.65C38.8878 38.656 38.8728 38.6592 38.8575 38.6593Z" fill="white"/>
<path d="M10.9106 7.94305C11.1942 7.94305 11.4248 7.71248 11.4248 7.42888V0.514166C11.4248 0.446644 11.4115 0.379785 11.3857 0.317403C11.3598 0.255022 11.322 0.19834 11.2742 0.150596C11.2265 0.102851 11.1698 0.0649779 11.1074 0.0391387C11.045 0.0132994 10.9782 0 10.9106 0C10.8431 0 10.7763 0.0132994 10.7139 0.0391387C10.6515 0.0649779 10.5948 0.102851 10.5471 0.150596C10.4993 0.19834 10.4615 0.255022 10.4356 0.317403C10.4098 0.379785 10.3965 0.446644 10.3965 0.514166V7.43004C10.3965 7.71363 10.6271 7.94305 10.9106 7.94305Z" fill="white"/>
<path d="M29.5337 7.94305C29.8173 7.94305 30.0479 7.71248 30.0479 7.42888V0.514166C30.0479 0.3778 29.9937 0.24702 29.8973 0.150596C29.8008 0.054171 29.6701 0 29.5337 0C29.3973 0 29.2666 0.054171 29.1701 0.150596C29.0737 0.24702 29.0195 0.3778 29.0195 0.514166V7.43004C29.0195 7.71363 29.2489 7.94305 29.5337 7.94305Z" fill="white"/>
<path d="M8.2536 20.6439C9.81859 20.6439 11.0873 19.3752 11.0873 17.8102C11.0873 16.2452 9.81859 14.9766 8.2536 14.9766C6.6886 14.9766 5.41992 16.2452 5.41992 17.8102C5.41992 19.3752 6.6886 20.6439 8.2536 20.6439Z" fill="white"/>
<path d="M16.3972 20.6439C17.9621 20.6439 19.2308 19.3752 19.2308 17.8102C19.2308 16.2452 17.9621 14.9766 16.3972 14.9766C14.8322 14.9766 13.5635 16.2452 13.5635 17.8102C13.5635 19.3752 14.8322 20.6439 16.3972 20.6439Z" fill="white"/>
<path d="M24.5397 20.6439C26.1047 20.6439 27.3734 19.3752 27.3734 17.8102C27.3734 16.2452 26.1047 14.9766 24.5397 14.9766C22.9747 14.9766 21.7061 16.2452 21.7061 17.8102C21.7061 19.3752 22.9747 20.6439 24.5397 20.6439Z" fill="white"/>
<path d="M8.2536 28.535C9.81859 28.535 11.0873 27.2663 11.0873 25.7014C11.0873 24.1364 9.81859 22.8677 8.2536 22.8677C6.6886 22.8677 5.41992 24.1364 5.41992 25.7014C5.41992 27.2663 6.6886 28.535 8.2536 28.535Z" fill="white"/>
<path d="M16.3972 28.535C17.9621 28.535 19.2308 27.2663 19.2308 25.7014C19.2308 24.1364 17.9621 22.8677 16.3972 22.8677C14.8322 22.8677 13.5635 24.1364 13.5635 25.7014C13.5635 27.2663 14.8322 28.535 16.3972 28.535Z" fill="white"/>
<path d="M24.5397 28.535C26.1047 28.535 27.3734 27.2663 27.3734 25.7014C27.3734 24.1364 26.1047 22.8677 24.5397 22.8677C22.9747 22.8677 21.7061 24.1364 21.7061 25.7014C21.7061 27.2663 22.9747 28.535 24.5397 28.535Z" fill="white"/>
<path d="M8.2536 36.4261C9.81859 36.4261 11.0873 35.1575 11.0873 33.5925C11.0873 32.0275 9.81859 30.7588 8.2536 30.7588C6.6886 30.7588 5.41992 32.0275 5.41992 33.5925C5.41992 35.1575 6.6886 36.4261 8.2536 36.4261Z" fill="white"/>
<path d="M16.3972 36.4261C17.9621 36.4261 19.2308 35.1575 19.2308 33.5925C19.2308 32.0275 17.9621 30.7588 16.3972 30.7588C14.8322 30.7588 13.5635 32.0275 13.5635 33.5925C13.5635 35.1575 14.8322 36.4261 16.3972 36.4261Z" fill="white"/>
<path d="M24.5397 36.4261C26.1047 36.4261 27.3734 35.1575 27.3734 33.5925C27.3734 32.0275 26.1047 30.7588 24.5397 30.7588C22.9747 30.7588 21.7061 32.0275 21.7061 33.5925C21.7061 35.1575 22.9747 36.4261 24.5397 36.4261Z" fill="white"/>
<path d="M32.4919 20.6439C34.0569 20.6439 35.3256 19.3752 35.3256 17.8102C35.3256 16.2452 34.0569 14.9766 32.4919 14.9766C30.9269 14.9766 29.6582 16.2452 29.6582 17.8102C29.6582 19.3752 30.9269 20.6439 32.4919 20.6439Z" fill="white"/>
<path d="M32.4919 28.535C34.0569 28.535 35.3256 27.2663 35.3256 25.7014C35.3256 24.1364 34.0569 22.8677 32.4919 22.8677C30.9269 22.8677 29.6582 24.1364 29.6582 25.7014C29.6582 27.2663 30.9269 28.535 32.4919 28.535Z" fill="white"/>
<path d="M32.4919 36.4261C34.0569 36.4261 35.3256 35.1575 35.3256 33.5925C35.3256 32.0275 34.0569 30.7588 32.4919 30.7588C30.9269 30.7588 29.6582 32.0275 29.6582 33.5925C29.6582 35.1575 30.9269 36.4261 32.4919 36.4261Z" fill="white"/>
</svg>
