<svg width="47" height="47" viewBox="0 0 47 47" fill="none" xmlns="http://www.w3.org/2000/svg">
<path d="M25.85 0.1175V4.8645C35.1325 6.016 42.3 13.912 42.3 23.5C42.3 31.0435 37.788 37.6 31.208 40.608L25.85 35.25V47H37.6L34.733 44.133C42.0885 40.1145 47 32.336 47 23.5C47 11.327 37.7175 1.2925 25.85 0.1175ZM21.15 0C16.5675 0.47 12.22 2.256 8.648 5.1935L11.985 8.5305C14.6525 6.47421 17.8126 5.15344 21.15 4.7V0ZM5.17 8.648C2.256 12.22 0.47 16.5675 0 21.15H4.7C5.1465 17.813 6.4625 14.6405 8.5305 11.985L5.17 8.648ZM9.4 14.1V18.8H16.45V21.15H14.1C11.515 21.15 9.4 23.265 9.4 25.85V32.9H21.15V28.2H14.1V25.85H16.45C19.0585 25.85 21.15 23.7585 21.15 21.15V18.8C21.15 17.5535 20.6548 16.358 19.7734 15.4766C18.892 14.5952 17.6965 14.1 16.45 14.1H9.4ZM23.5 14.1V25.85H30.55V32.9H35.25V25.85H37.6V21.15H35.25V14.1H30.55V21.15H28.2V14.1H23.5ZM0 25.85C0.47 30.4325 2.2795 34.78 5.217 38.352L8.554 35.015C6.49072 32.3492 5.16193 29.1892 4.7 25.85H0ZM12.0085 38.4695L8.648 41.8065C12.2185 44.7217 16.5648 46.5272 21.15 47V42.3C17.8169 41.8569 14.6618 40.5348 12.0085 38.4695Z" fill="white"/>
</svg>
