<svg width="43" height="36" viewBox="0 0 43 36" fill="none" xmlns="http://www.w3.org/2000/svg">
<path d="M7.63901 13.2632C8.14551 13.2632 8.63126 13.4628 8.98941 13.8181C9.34756 14.1734 9.54877 14.6554 9.54877 15.1579C12.5493 15.1535 15.4632 16.155 17.818 18H21.9622C24.5079 18 26.7938 19.0989 28.3675 20.8421H34.3756C36.1808 20.8416 37.9491 21.3488 39.4756 22.3049C41.0021 23.261 42.2241 24.6268 43 26.244C38.4834 32.1575 31.171 36 22.917 36C17.5888 36 13.0818 34.8575 9.43418 32.8585C9.30058 33.2243 9.05651 33.5403 8.73524 33.7634C8.41398 33.9866 8.03116 34.1059 7.63901 34.1053H1.90975C1.40325 34.1053 0.917502 33.9056 0.559354 33.5503C0.201205 33.195 0 32.713 0 32.2105V15.1579C0 14.6554 0.201205 14.1734 0.559354 13.8181C0.917502 13.4628 1.40325 13.2632 1.90975 13.2632H7.63901ZM9.55067 18.9474L9.54877 28.4627L9.6347 28.5234C13.0627 30.9107 17.5277 32.2105 22.917 32.2105C28.6539 32.2105 33.9917 30.0202 37.8799 26.28L38.1339 26.028L37.9048 25.8385C37.003 25.1378 35.9099 24.7219 34.7671 24.6448L34.3756 24.6316H30.3441C30.4816 25.2417 30.556 25.8745 30.556 26.5263V28.4211H13.3683V24.6316L26.3355 24.6297L26.2706 24.4819C25.9046 23.7231 25.3416 23.0747 24.6395 22.6032C23.9373 22.1317 23.1214 21.8541 22.2754 21.7989L21.9622 21.7895H16.3666C15.4791 20.889 14.4192 20.1736 13.249 19.6855C12.0788 19.1974 10.822 18.9465 9.55258 18.9474H9.55067ZM5.72926 17.0526H3.81951V30.3158H5.72926V17.0526ZM32.4658 5.68421C33.9853 5.68421 35.4426 6.28308 36.517 7.34908C37.5914 8.41507 38.1951 9.86088 38.1951 11.3684C38.1951 12.876 37.5914 14.3218 36.517 15.3878C35.4426 16.4538 33.9853 17.0526 32.4658 17.0526C30.9463 17.0526 29.489 16.4538 28.4146 15.3878C27.3402 14.3218 26.7365 12.876 26.7365 11.3684C26.7365 9.86088 27.3402 8.41507 28.4146 7.34908C29.489 6.28308 30.9463 5.68421 32.4658 5.68421ZM32.4658 9.47368C31.9593 9.47368 31.4735 9.67331 31.1154 10.0286C30.7573 10.384 30.556 10.8659 30.556 11.3684C30.556 11.8709 30.7573 12.3529 31.1154 12.7082C31.4735 13.0635 31.9593 13.2632 32.4658 13.2632C32.9723 13.2632 33.4581 13.0635 33.8162 12.7082C34.1744 12.3529 34.3756 11.8709 34.3756 11.3684C34.3756 10.8659 34.1744 10.384 33.8162 10.0286C33.4581 9.67331 32.9723 9.47368 32.4658 9.47368ZM19.0975 0C20.617 0 22.0743 0.598871 23.1487 1.66487C24.2232 2.73086 24.8268 4.17666 24.8268 5.68421C24.8268 7.19176 24.2232 8.63756 23.1487 9.70355C22.0743 10.7696 20.617 11.3684 19.0975 11.3684C17.578 11.3684 16.1208 10.7696 15.0463 9.70355C13.9719 8.63756 13.3683 7.19176 13.3683 5.68421C13.3683 4.17666 13.9719 2.73086 15.0463 1.66487C16.1208 0.598871 17.578 0 19.0975 0ZM19.0975 3.78947C18.591 3.78947 18.1053 3.9891 17.7471 4.34443C17.389 4.69976 17.1878 5.18169 17.1878 5.68421C17.1878 6.18673 17.389 6.66866 17.7471 7.02399C18.1053 7.37932 18.591 7.57895 19.0975 7.57895C19.604 7.57895 20.0898 7.37932 20.4479 7.02399C20.8061 6.66866 21.0073 6.18673 21.0073 5.68421C21.0073 5.18169 20.8061 4.69976 20.4479 4.34443C20.0898 3.9891 19.604 3.78947 19.0975 3.78947Z" fill="white"/>
</svg>
